<svg width="12" height="20" viewBox="0 0 12 20" fill="none" xmlns="http://www.w3.org/2000/svg">
<path d="M0.503816 19.5067C0.167938 19.1779 0 18.7593 0 18.2511C0 17.7429 0.167938 17.3244 0.503816 16.9955L7.64886 10L0.503816 3.00448C0.167938 2.67564 0 2.2571 0 1.74888C0 1.24066 0.167938 0.822122 0.503816 0.493273C0.839694 0.164424 1.26717 0 1.78626 0C2.30534 0 2.73282 0.164424 3.0687 0.493273L11.4962 8.74439C11.6794 8.92377 11.8095 9.11809 11.8864 9.32735C11.9621 9.53662 12 9.76084 12 10C12 10.2392 11.9621 10.4634 11.8864 10.6726C11.8095 10.8819 11.6794 11.0762 11.4962 11.2556L3.0687 19.5067C2.73282 19.8356 2.30534 20 1.78626 20C1.26717 20 0.839694 19.8356 0.503816 19.5067Z" fill="white"/>
</svg>
