<svg width="12" height="20" viewBox="0 0 12 20" fill="none" xmlns="http://www.w3.org/2000/svg">
<path d="M8.9313 19.5067L0.503816 11.2556C0.32061 11.0762 0.191145 10.8819 0.115419 10.6726C0.0384728 10.4634 0 10.2392 0 10C0 9.76084 0.0384728 9.53662 0.115419 9.32735C0.191145 9.11809 0.32061 8.92377 0.503816 8.74439L8.9313 0.493273C9.26717 0.164424 9.69466 0 10.2137 0C10.7328 0 11.1603 0.164424 11.4962 0.493273C11.8321 0.822122 12 1.24066 12 1.74888C12 2.2571 11.8321 2.67564 11.4962 3.00448L4.35114 10L11.4962 16.9955C11.8321 17.3244 12 17.7429 12 18.2511C12 18.7593 11.8321 19.1779 11.4962 19.5067C11.1603 19.8356 10.7328 20 10.2137 20C9.69466 20 9.26717 19.8356 8.9313 19.5067Z" fill="white"/>
</svg>
