<svg width="15" height="9" viewBox="0 0 15 9" fill="none" xmlns="http://www.w3.org/2000/svg">
<path d="M0.369957 0.377862C0.616593 0.125954 0.930493 0 1.31166 0C1.69282 0 2.00673 0.125954 2.25336 0.377862L7.5 5.73664L12.7466 0.377862C12.9933 0.125954 13.3072 0 13.6883 0C14.0695 0 14.3834 0.125954 14.63 0.377862C14.8767 0.62977 15 0.950381 15 1.33969C15 1.72901 14.8767 2.04962 14.63 2.30153L8.4417 8.62214C8.30718 8.75954 8.16144 8.8571 8.00449 8.91481C7.84753 8.9716 7.67937 9 7.5 9C7.32063 9 7.15247 8.9716 6.99552 8.91481C6.83857 8.8571 6.69283 8.75954 6.5583 8.62214L0.369957 2.30153C0.123321 2.04962 0 1.72901 0 1.33969C0 0.950381 0.123321 0.62977 0.369957 0.377862Z" fill="white"/>
</svg>
