<svg width="28" height="28" viewBox="0 0 28 28" fill="none" xmlns="http://www.w3.org/2000/svg">
<path d="M13.2999 21.1878L21.9285 12.5591C20.4769 11.9527 19.1586 11.0672 18.0482 9.95279C16.9332 8.84218 16.0473 7.52338 15.4407 6.07129L6.81203 14.7C6.13886 15.3731 5.80169 15.7103 5.51236 16.0813C5.17098 16.5193 4.878 16.993 4.63853 17.4941C4.43669 17.9188 4.28619 18.3715 3.98519 19.2745L2.39619 24.038C2.32306 24.2561 2.31221 24.4902 2.36486 24.7142C2.41751 24.9381 2.53158 25.1429 2.69424 25.3056C2.8569 25.4682 3.06171 25.5823 3.28564 25.635C3.50958 25.6876 3.74376 25.6768 3.96186 25.6036L8.72536 24.0146C9.62953 23.7136 10.081 23.5631 10.5057 23.3613C11.0089 23.1217 11.4799 22.8305 11.9185 22.4875C12.2895 22.1981 12.6267 21.861 13.2999 21.1878ZM24.3225 10.1651C25.1829 9.30479 25.6662 8.13791 25.6662 6.92121C25.6662 5.7045 25.1829 4.53763 24.3225 3.67729C23.4622 2.81695 22.2953 2.33362 21.0786 2.33362C19.8619 2.33362 18.695 2.81695 17.8347 3.67729L16.7999 4.71213L16.8442 4.84163C17.354 6.30087 18.1885 7.62528 19.2849 8.71496C20.4071 9.84408 21.7779 10.6951 23.2877 11.2L24.3225 10.1651Z" fill="#F5F7FA"/>
</svg>
