<svg width="61" height="41" viewBox="0 0 61 41" fill="none" xmlns="http://www.w3.org/2000/svg">
<path d="M29.8466 27.3962C30.2161 28.7443 30.3961 30.9341 30.3961 30.9341L30.5976 32.3536C30.625 32.5466 30.8985 32.5606 30.9455 32.3714C30.9455 32.3714 31.1151 28.7351 31.495 27.3962C31.7487 26.5019 32.3741 25.185 32.3741 25.185L33.2532 23.3055L34.2422 22.0894C35.3333 20.6989 36.6508 19.502 38.1393 18.549L38.3081 18.4409L39.5573 17.7852C40.4059 17.3397 41.3087 17.006 42.243 16.7924C42.915 16.6387 43.5999 16.548 44.2887 16.5213L46.1103 16.4508L44.7917 14.2396H42.3688C41.6423 14.2396 40.9182 14.3252 40.2116 14.4944C39.3861 14.6922 38.5917 15.0025 37.8508 15.4166L37.3553 15.6936C36.4551 16.1967 35.6161 16.8024 34.8552 17.4984L34.5782 17.7517C33.9169 18.3565 33.3289 19.0368 32.8262 19.7786C32.2346 20.6516 31.7663 21.602 31.4347 22.6031L31.0554 23.7478L30.7257 25.959L30.3961 23.7478C29.6665 21.8393 28.6953 20.0322 27.5062 18.3706L27.3191 18.1092L25.9971 16.9787C25.4146 16.4805 24.7859 16.039 24.1196 15.6601L24.0203 15.6036C23.0743 15.0657 22.0555 14.6674 20.9955 14.4213C20.159 14.2271 19.3032 14.1291 18.4445 14.1291H16.44L15.1213 16.4508H16.9895L18.8576 16.7825L19.7645 16.9809C20.8395 17.216 21.8761 17.6013 22.8436 18.1255C23.7718 18.6283 24.6277 19.2542 25.3883 19.9861L26.7697 21.3155C26.7697 21.3155 28.1082 23.1958 28.7477 24.5217C29.2696 25.6038 29.5288 26.2368 29.8466 27.3962Z" fill="#2E3440" stroke="#2E3440" stroke-width="0.3" stroke-linecap="square"/>
<ellipse cx="30.7257" cy="12.9129" rx="3.62637" ry="3.53791" fill="#2E3440"/>
<path d="M46.5499 17.7775H44.6818H44.1323L48.1983 26.4012L45.7509 26.5184C44.3141 26.5873 42.8965 26.8767 41.5477 27.3767C40.1299 27.9022 38.8065 28.6535 37.6286 29.6016L37.2093 29.9391C35.6017 31.4829 34.1551 33.186 32.8916 35.0221L32.8137 35.1354L31.4181 37.7274C31.3962 37.7681 31.3802 37.8118 31.3706 37.857L31.2307 38.5139C31.2101 38.6102 31.3465 38.6533 31.3851 38.5627L33.1433 36.241L35.7807 33.8087L37.5389 32.2608L40.0664 30.6024L42.7038 29.3863L46.5499 28.7229H52.0444L46.5499 17.7775Z" fill="#2E3440" stroke="#2E3440" stroke-width="0.3" stroke-linecap="square"/>
<path d="M59.1873 34.3614L48.1983 18.4409L48.3974 18.8416L48.5966 19.2424L48.995 20.044L49.7917 21.6471L51.3851 24.8533L54.5719 31.2658C53.2572 30.9718 51.9142 30.8235 50.567 30.8235H48.1347C46.7158 30.8235 45.3007 30.9717 43.9126 31.2658L41.8586 31.834C40.3055 32.2637 38.822 32.9138 37.4533 33.7643C36.342 34.4549 35.3148 35.2724 34.3925 36.2004L33.2532 37.3465L31.6356 39.2181C31.5247 39.3464 31.6776 39.5317 31.8247 39.4472L34.816 37.1716C35.8223 36.4061 36.9104 35.7545 38.0602 35.2286C39.3198 34.6526 40.6446 34.2316 42.0056 33.9749L42.9409 33.7984C44.4645 33.511 46.0115 33.3664 47.5619 33.3664H51.0201C52.0663 33.3664 53.1096 33.4776 54.1323 33.6981L59.1873 34.3614Z" fill="#2E3440" stroke="#2E3440" stroke-width="0.3" stroke-linecap="square"/>
<path d="M35.0436 37.895L32.3319 39.8706C32.2759 39.9114 32.3048 40 32.3741 40L33.8576 39.613L35.5609 39.2261L38.9675 38.4522L42.8136 37.7888L43.1267 37.7438C44.9669 37.4793 46.8237 37.3466 48.6828 37.3466H49.9289C51.2637 37.3466 52.5961 37.4575 53.9125 37.6782L57.9785 38.1205L60.0664 38.4522L57.9785 37.3466L54.7917 36.241C52.5236 35.7257 50.221 35.377 47.9021 35.1975L47.0993 35.1354L45.9769 35.2222C43.8718 35.3852 41.7843 35.726 39.7367 36.241L35.691 37.5638C35.4592 37.6396 35.2407 37.7514 35.0436 37.895Z" fill="#2E3440" stroke="#2E3440" stroke-width="0.3" stroke-linecap="square"/>
<path d="M14.5063 17.5564H16.5016H17.0885L12.7458 26.2243L15.4035 26.3441C16.91 26.412 18.3987 26.6988 19.8226 27.1955C21.355 27.7301 22.7942 28.5013 24.0879 29.4813L24.4828 29.7803C26.1997 31.332 27.7532 33.0554 29.1192 34.9235L29.1775 35.0033L30.5836 37.5102C30.605 37.5483 30.6199 37.5896 30.6276 37.6325L30.7722 38.4324C30.7799 38.4751 30.7194 38.4925 30.7033 38.4522L28.8254 36.1145L26.0086 33.6697L24.1306 32.114L21.4311 30.4471L18.6143 29.2247L14.5063 28.5579H8.63787L14.5063 17.5564Z" fill="#2E3440" stroke="#2E3440" stroke-width="0.3" stroke-linecap="square"/>
<path d="M1.16532 34.1404L12.8411 18.2198L12.6295 18.6206L12.4179 19.0213L11.9946 19.8229L11.1481 21.426L9.45515 24.6322L6.06916 31.0447C7.46649 30.7507 8.89056 30.6025 10.3185 30.6025H12.9142C14.4186 30.6025 15.9194 30.7506 17.3947 31.0447L19.6364 31.6284C21.2478 32.0481 22.794 32.6872 24.2314 33.5279C25.4297 34.2287 26.5438 35.0646 27.5518 36.0191L28.7203 37.1255L30.4269 38.9839C30.5457 39.1133 30.3926 39.3097 30.2381 39.2261L27.0953 36.976C26.0023 36.1934 24.8283 35.5307 23.5935 34.9993C22.2676 34.4286 20.8802 34.0129 19.459 33.7606L18.4139 33.575C16.8035 33.2891 15.1711 33.1453 13.5354 33.1453H9.83874C8.72957 33.1453 7.6232 33.2564 6.53619 33.477L1.16532 34.1404Z" fill="#2E3440" stroke="#2E3440" stroke-width="0.3" stroke-linecap="square"/>
<path d="M26.8354 37.7661L29.762 39.7571C29.8209 39.7972 29.7925 39.8895 29.7212 39.8895L28.1325 39.5025L26.3085 39.1155L22.6605 38.3416L18.5418 37.6783L15.2468 37.236H10.9186C9.49141 37.236 8.06638 37.3469 6.65638 37.5677L2.30231 38.0099L0.0664387 38.3416L2.30231 37.236L5.71496 36.1304L9.36297 35.3565L13.9524 35.0248L15.166 35.1125C17.413 35.2749 19.6436 35.6153 21.8368 36.1304L26.2067 37.4647C26.4302 37.533 26.6422 37.6346 26.8354 37.7661Z" fill="#2E3440" stroke="#2E3440" stroke-width="0.3" stroke-linecap="square"/>
<path d="M15.0663 2.8125L15.8545 5.18775H18.4051L16.3416 6.65574L17.1298 9.031L15.0663 7.56301L13.0028 9.031L13.791 6.65574L11.7275 5.18775H14.2781L15.0663 2.8125Z" fill="#2E3440"/>
<path d="M45.0663 2.8125L45.8545 5.18775H48.4051L46.3416 6.65574L47.1298 9.031L45.0663 7.56301L43.0028 9.031L43.791 6.65574L41.7275 5.18775H44.2781L45.0663 2.8125Z" fill="#2E3440"/>
<path d="M30.0663 0L30.8545 2.37525H33.4051L31.3416 3.84324L32.1298 6.2185L30.0663 4.75051L28.0028 6.2185L28.791 3.84324L26.7275 2.37525H29.2781L30.0663 0Z" fill="#2E3440"/>
</svg>
