<svg width="70" height="70" viewBox="0 0 70 70" fill="none" xmlns="http://www.w3.org/2000/svg">
<rect width="70" height="70" rx="20" fill="#4A90E2"/>
<path d="M34.7802 42.3962C35.1497 43.7443 35.3297 45.9341 35.3297 45.9341L35.5312 47.3535C35.5586 47.5465 35.8321 47.5606 35.8791 47.3714C35.8791 47.3714 36.0487 43.7351 36.4286 42.3962C36.6823 41.5019 37.3077 40.185 37.3077 40.185L38.1868 38.3055L39.1758 37.0893C40.2669 35.6988 41.5844 34.502 43.0729 33.5489L43.2417 33.4409L44.4909 32.7851C45.3395 32.3397 46.2423 32.006 47.1766 31.7923C47.8486 31.6387 48.5335 31.5479 49.2223 31.5213L51.0439 31.4508L49.7253 29.2396H47.3024C46.5758 29.2396 45.8518 29.3251 45.1452 29.4944C44.3197 29.6921 43.5253 30.0024 42.7844 30.4166L42.2889 30.6935C41.3887 31.1967 40.5497 31.8023 39.7888 32.4983L39.5118 32.7516C38.8505 33.3564 38.2625 34.0367 37.7598 34.7786C37.1682 35.6515 36.6999 36.602 36.3683 37.603L35.989 38.7477L35.6593 40.9589L35.3297 38.7477C34.6001 36.8392 33.6289 35.0321 32.4398 33.3706L32.2527 33.1092L30.9307 31.9786C30.3482 31.4804 29.7195 31.0389 29.0532 30.66L28.9539 30.6035C28.0079 30.0656 26.9891 29.6674 25.9291 29.4213C25.0926 29.2271 24.2368 29.129 23.3781 29.129H21.3736L20.0549 31.4508H21.9231L23.7912 31.7825L24.6981 31.9808C25.7731 32.2159 26.8097 32.6013 27.7772 33.1254C28.7054 33.6282 29.5613 34.2541 30.3219 34.986L31.7033 36.3154C31.7033 36.3154 33.0418 38.1958 33.6813 39.5216C34.2032 40.6037 34.4624 41.2367 34.7802 42.3962Z" fill="#F5F7FA" stroke="#F5F7FA" stroke-width="0.3" stroke-linecap="square"/>
<path d="M35.6589 24.5254C37.5824 24.5254 39.1355 26.0455 39.1355 27.9131C39.1354 29.7806 37.5823 31.3008 35.6589 31.3008C33.7357 31.3006 32.1834 29.7805 32.1833 27.9131C32.1833 26.0456 33.7357 24.5256 35.6589 24.5254Z" fill="#F5F7FA" stroke="#F5F7FA" stroke-width="0.3"/>
<path d="M51.4835 32.7776H49.6154H49.0659L53.1319 41.4012L50.6845 41.5185C49.2477 41.5873 47.8301 41.8768 46.4813 42.3767C45.0635 42.9022 43.7401 43.6536 42.5622 44.6016L42.1429 44.9391C40.5353 46.483 39.0886 48.1861 37.8252 50.0222L37.7473 50.1354L36.3517 52.7275C36.3298 52.7682 36.3138 52.8118 36.3042 52.8571L36.1643 53.514C36.1437 53.6103 36.2801 53.6534 36.3187 53.5628L38.0769 51.241L40.7143 48.8087L42.4725 47.2609L45 45.6025L47.6374 44.3863L51.4835 43.723H56.978L51.4835 32.7776Z" fill="#F5F7FA" stroke="#F5F7FA" stroke-width="0.3" stroke-linecap="square"/>
<path d="M64.1209 49.3615L53.1319 33.4409L53.331 33.8417L53.5302 34.2425L53.9286 35.044L54.7253 36.6471L56.3187 39.8534L59.5055 46.2658C58.1908 45.9719 56.8478 45.8236 55.5006 45.8236H53.0683C51.6494 45.8236 50.2343 45.9718 48.8462 46.2658L46.7922 46.8341C45.2391 47.2638 43.7556 47.9138 42.3869 48.7644C41.2756 49.4549 40.2484 50.2724 39.3261 51.2004L38.1868 52.3466L36.5692 54.2182C36.4583 54.3465 36.6112 54.5318 36.7582 54.4472L39.7496 52.1717C40.7559 51.4062 41.844 50.7545 42.9938 50.2287C44.2534 49.6527 45.5782 49.2317 46.9392 48.975L47.8745 48.7985C49.3981 48.5111 50.9451 48.3665 52.4955 48.3665H55.9537C56.9999 48.3665 58.0432 48.4776 59.0659 48.6981L64.1209 49.3615Z" fill="#F5F7FA" stroke="#F5F7FA" stroke-width="0.3" stroke-linecap="square"/>
<path d="M39.9772 52.895L37.2655 54.8706C37.2095 54.9114 37.2384 55 37.3077 55L38.7912 54.613L40.4945 54.2261L43.9011 53.4522L47.7472 52.7888L48.0603 52.7438C49.9005 52.4793 51.7573 52.3466 53.6164 52.3466H54.8625C56.1973 52.3466 57.5297 52.4575 58.8461 52.6782L62.9121 53.1205L65 53.4522L62.9121 52.3466L59.7252 51.241C57.4572 50.7257 55.1546 50.377 52.8357 50.1975L52.0329 50.1354L50.9105 50.2222C48.8054 50.3852 46.7179 50.726 44.6703 51.241L40.6246 52.5638C40.3928 52.6396 40.1743 52.7514 39.9772 52.895Z" fill="#F5F7FA" stroke="#F5F7FA" stroke-width="0.3" stroke-linecap="square"/>
<path d="M19.4399 32.5564H21.4352H22.0221L17.6794 41.2243L20.3371 41.3441C21.8436 41.412 23.3322 41.6988 24.7562 42.1955C26.2886 42.7301 27.7278 43.5013 29.0215 44.4813L29.4164 44.7803C31.1333 46.332 32.6868 48.0554 34.0528 49.9235L34.1111 50.0033L35.5172 52.5102C35.5386 52.5483 35.5534 52.5896 35.5612 52.6325L35.7058 53.4324C35.7135 53.4751 35.653 53.4925 35.6369 53.4522L33.759 51.1145L30.9422 48.6697L29.0642 47.114L26.3647 45.4471L23.5479 44.2247L19.4399 43.5579H13.5715L19.4399 32.5564Z" fill="#F5F7FA" stroke="#F5F7FA" stroke-width="0.3" stroke-linecap="square"/>
<path d="M6.09891 49.1403L17.7747 33.2197L17.5631 33.6205L17.3515 34.0213L16.9282 34.8228L16.0817 36.426L14.3887 39.6322L11.0028 46.0446C12.4001 45.7506 13.8242 45.6024 15.2521 45.6024H17.8478C19.3522 45.6024 20.8529 45.7505 22.3283 46.0446L24.57 46.6284C26.1814 47.048 27.7276 47.6871 29.165 48.5278C30.3633 49.2287 31.4774 50.0645 32.4854 51.019L33.6538 52.1254L35.3605 53.9838C35.4793 54.1132 35.3262 54.3097 35.1717 54.226L32.0289 51.9759C30.9359 51.1934 29.7619 50.5307 28.5271 49.9992C27.2012 49.4285 25.8138 49.0129 24.3926 48.7605L23.3475 48.575C21.7371 48.2891 20.1046 48.1453 18.469 48.1453H14.7723C13.6632 48.1453 12.5568 48.2564 11.4698 48.4769L6.09891 49.1403Z" fill="#F5F7FA" stroke="#F5F7FA" stroke-width="0.3" stroke-linecap="square"/>
<path d="M31.769 52.766L34.6955 54.757C34.7545 54.7971 34.7261 54.8894 34.6548 54.8894L33.0661 54.5024L31.2421 54.1155L27.5941 53.3416L23.4754 52.6782L20.1804 52.236H15.8522C14.425 52.236 13 52.3469 11.59 52.5677L7.23591 53.0099L5.00003 53.3416L7.23591 52.236L10.6486 51.1304L14.2966 50.3565L18.886 50.0248L20.0996 50.1125C22.3466 50.2749 24.5772 50.6152 26.7704 51.1304L31.1403 52.4647C31.3638 52.5329 31.5758 52.6345 31.769 52.766Z" fill="#F5F7FA" stroke="#F5F7FA" stroke-width="0.3" stroke-linecap="square"/>
<path d="M20.6455 20.2354L20.6797 20.3379H22.8691L21.1885 21.5332L21.0977 21.5977L21.1328 21.7031L21.7764 23.6426L20.0869 22.4404L20 22.3789L19.9131 22.4404L18.2227 23.6426L18.8672 21.7031L18.9023 21.5977L18.8115 21.5332L17.1309 20.3379H19.3203L19.3545 20.2354L20 18.2891L20.6455 20.2354Z" fill="#F5F7FA" stroke="#F5F7FA" stroke-width="0.3"/>
<path d="M50.6455 20.2354L50.6797 20.3379H52.8691L51.1885 21.5332L51.0977 21.5977L51.1328 21.7031L51.7764 23.6426L50.0869 22.4404L50 22.3789L49.9131 22.4404L48.2227 23.6426L48.8672 21.7031L48.9023 21.5977L48.8115 21.5332L47.1309 20.3379H49.3203L49.3545 20.2354L50 18.2891L50.6455 20.2354Z" fill="#F5F7FA" stroke="#F5F7FA" stroke-width="0.3"/>
<path d="M35.6455 17.4229L35.6797 17.5254H37.8691L36.1885 18.7207L36.0977 18.7852L36.1328 18.8906L36.7764 20.8301L35.0869 19.6279L35 19.5664L34.9131 19.6279L33.2227 20.8301L33.8672 18.8906L33.9023 18.7852L33.8115 18.7207L32.1309 17.5254H34.3203L34.3545 17.4229L35 15.4766L35.6455 17.4229Z" fill="#F5F7FA" stroke="#F5F7FA" stroke-width="0.3"/>
</svg>
